# xmcd
#
# Track frame offsets: 
#        150
#        27032
#        43181
#        71575
#        96394
#        129302
#        152832
#        173078
#        191304
#
# Disc length: 2889 seconds
#
# Revision: 0
# Processed by: cddbd v1.5.2PL0 Copyright (c) Steve Scherf et al.
# Submitted via: ExactAudioCopy v0.99pb4
#
DISCID=700b4709
DTITLE=The Robert Cray Band - This Time
DYEAR=2009
DGENRE=Blues
TTITLE0=Chicken In The Kitchen
TTITLE1=I Can't Fail
TTITLE2=Love 2009
TTITLE3=That's What Keeps Me Rockin'
TTITLE4=This Time
TTITLE5=To Be True
TTITLE6=Forever Goodbye
TTITLE7=Trouble and Pain
TTITLE8=Truce
EXTD=
EXTT0=
EXTT1=
EXTT2=
EXTT3=
EXTT4=
EXTT5=
EXTT6=
EXTT7=
EXTT8=
PLAYORDER=
